<svg width="40" height="32" viewBox="0 0 40 32" fill="none" xmlns="http://www.w3.org/2000/svg">
<path d="M35.6685 16.8191H4.2858C3.62829 16.8191 3.09137 17.3765 3.15166 18.0344C3.84076 25.8489 11.1107 32 19.9771 32C28.8435 32 36.1135 25.8518 36.8026 18.0344C36.86 17.3765 36.326 16.8191 35.6685 16.8191Z" fill="#FF6633"/>
<path fill-rule="evenodd" clip-rule="evenodd" d="M0.225147 3.33137C1.7887 1.27854 4.60645 0 7.711 0C10.8155 0 13.6333 1.27854 15.1969 3.33137C15.5659 3.81589 15.4714 4.50716 14.9858 4.87537C14.5001 5.24357 13.8073 5.14928 13.4383 4.66476C12.3661 3.25707 10.2569 2.20377 7.711 2.20377C5.16509 2.20377 3.05591 3.25707 1.98374 4.66476C1.6147 5.14928 0.921857 5.24357 0.436236 4.87537C-0.0493858 4.50716 -0.143894 3.81589 0.225147 3.33137Z" fill="#414141"/>
<path fill-rule="evenodd" clip-rule="evenodd" d="M24.7673 3.33137C26.3309 1.27854 29.1486 0 32.2532 0C35.3554 0 38.1723 1.27884 39.7383 3.33045C40.1079 3.81458 40.0141 4.50596 39.5289 4.87467C39.0436 5.24338 38.3507 5.14981 37.9811 4.66568C36.9057 3.25676 34.7957 2.20377 32.2532 2.20377C29.7073 2.20377 27.5981 3.25707 26.5259 4.66476C26.1569 5.14928 25.464 5.24357 24.9784 4.87537C24.4928 4.50716 24.3983 3.81589 24.7673 3.33137Z" fill="#414141"/>
</svg>
