<svg width="22" height="20" viewBox="0 0 22 20" fill="none" xmlns="http://www.w3.org/2000/svg">
<path fill-rule="evenodd" clip-rule="evenodd" d="M11.6577 1.75827C12.783 0.632497 14.3095 0 15.9013 0C17.493 0 19.0195 0.632466 20.1448 1.75819C21.2705 2.88347 21.9031 4.41012 21.9031 6.00183C21.9031 7.59357 21.2706 9.12009 20.1448 10.2454L11.3048 19.0854C11.1096 19.2806 10.793 19.2806 10.5977 19.0854L1.75774 10.2454C-0.585912 7.90173 -0.585912 4.10192 1.75774 1.75827C4.10139 -0.585378 7.90119 -0.585378 10.2448 1.75827L10.9513 2.46472L11.6577 1.75827ZM15.9013 1C14.5748 1 13.3027 1.52711 12.3649 2.4653L11.3048 3.52538C11.2111 3.61915 11.0839 3.67183 10.9513 3.67183C10.8187 3.67183 10.6915 3.61915 10.5977 3.52538L9.53774 2.46538C7.58461 0.512254 4.41797 0.512254 2.46484 2.46538C0.511719 4.4185 0.511719 7.58515 2.46484 9.53827L10.9513 18.0247L19.4377 9.53827C20.3759 8.60052 20.9031 7.32831 20.9031 6.00183C20.9031 4.67534 20.376 3.40321 19.4378 2.46546C18.5001 1.52727 17.2278 1 15.9013 1Z" fill="#FF6633"/>
<path d="M13.8485 2.1182C13.7752 2.12487 13.7226 2.16401 13.6703 2.21346C13.5435 2.33329 13.4065 2.43972 13.2677 2.54532C13.063 2.70109 12.8531 2.8373 12.6762 3.02776C12.5723 3.13969 12.431 3.19636 12.306 3.27973C12.1966 3.35266 12.5821 3.33299 12.6009 3.33197C12.7346 3.32474 12.8562 3.30488 12.9635 3.22442" stroke="#FF6633" stroke-width="3" stroke-linecap="round"/>
<path d="M13.2677 3.27973C14.1334 2.9443 14.9724 2.5395 15.8336 2.19502C16.0545 2.10662 16.2763 2.21275 16.5126 2.27184C16.7399 2.32865 16.9483 2.3671 17.1795 2.3671C17.4072 2.3671 17.517 2.46483 17.6819 2.60524C17.8446 2.74386 18.0467 2.8141 18.2027 2.94786C18.3558 3.07909 18.4427 3.20544 18.5499 3.38421C18.6565 3.56176 18.743 3.86007 18.8956 3.9957C19.0165 4.10313 19.0962 4.2478 19.2014 4.37212C19.3453 4.54216 19.3589 4.7536 19.4411 4.95442C19.5167 5.13927 19.5243 5.35138 19.607 5.53518C19.6764 5.68939 19.7117 5.88773 19.7376 6.05603C19.7641 6.22844 19.7391 6.42241 19.7391 6.59685C19.7391 6.82148 19.6203 6.99364 19.567 7.2068C19.5005 7.47315 19.388 7.74171 19.2413 7.97501C19.1833 8.06737 19.0946 8.13808 19.0477 8.2362C19.0061 8.32336 18.9109 8.47025 18.8388 8.5358C18.6486 8.7087 18.4798 9.00021 18.3318 9.20875C18.1292 9.49415 17.8495 9.7048 17.6035 9.95083C17.0817 10.4727 16.5328 10.9692 15.9949 11.478C15.7774 11.6837 15.5319 11.8473 15.3112 12.048C15.0623 12.2743 14.796 12.4926 14.5184 12.6826C14.2521 12.8648 14.029 13.0604 13.7993 13.2849C13.618 13.4621 13.4787 13.6737 13.3077 13.861C13.1071 14.0807 12.8905 14.3113 12.6455 14.4817C12.5498 14.5483 12.4405 14.6402 12.3567 14.7199C12.3047 14.7692 12.2917 14.8431 12.2445 14.895C12.2008 14.9431 12.1496 14.97 12.1124 15.0271C11.9589 15.2628 11.7774 15.4827 11.6637 15.7385C11.6082 15.8635 11.4431 15.973 11.3457 16.0704C11.2579 16.1581 11.1753 16.2407 11.083 16.3331C11.0295 16.3866 10.9831 16.4236 10.9723 16.499C10.9546 16.6231 10.8315 16.2635 10.7112 16.2286C10.5269 16.1753 10.2192 16.1036 10.1688 15.8768C10.1572 15.8248 10.0514 15.6741 10.0152 15.6263C9.93057 15.515 9.86767 15.4038 9.79238 15.2883C9.58482 14.9701 9.34067 14.4832 9.34067 14.093" stroke="#FF6633" stroke-width="3" stroke-linecap="round"/>
<path d="M7.22657 2.76964C7.08605 2.72192 6.94789 2.68596 6.80927 2.63579C6.72525 3.04733 6.68575 3.46567 6.68575 3.88661V5.54748C6.68575 5.71139 6.27674 5.74552 6.16337 5.76872C5.8007 5.84295 5.43482 5.90319 5.08174 6.01762C4.90668 6.07435 4.7291 6.12743 4.55298 6.18402C4.52603 6.37995 4.51547 6.57705 4.53785 6.77661C4.63985 7.68617 5.76548 7.79366 6.48294 7.80907C7.0638 7.82155 7.64779 7.81257 8.18836 7.574C8.24489 7.54906 8.30101 7.5226 8.35667 7.49476C8.37254 7.26489 8.3959 7.03551 8.4259 6.80704C7.92851 6.80834 7.40592 6.76697 7.43398 6.58455C7.47397 6.32465 7.83803 6.08172 8.01168 5.92543C8.0473 5.89337 8.59398 5.40705 8.59398 5.64888C8.59398 5.91504 8.52269 6.17596 8.48028 6.43706C8.4603 6.56008 8.44213 6.68343 8.4259 6.80704C8.82871 6.80599 9.21499 6.77694 9.27885 6.77214L9.28075 6.772C9.3294 6.76834 9.37801 6.76419 9.42658 6.75957C9.46072 6.7295 9.49441 6.69915 9.52762 6.66857C9.57773 6.45327 9.70701 6.22774 9.80006 6.05603C10.1286 5.44967 10.6462 4.79342 11.3687 4.6625C11.7648 4.59074 12.1529 4.66661 12.5095 4.83109C13.1407 4.66101 13.7635 4.47367 14.4185 4.38748C14.8434 4.33158 15.2569 4.24767 15.6861 4.24767C15.9553 4.24767 16.2319 4.23022 16.5004 4.25228C16.7066 4.26923 16.9076 4.32402 17.1149 4.33064C17.2355 4.33448 17.2554 4.33741 17.3116 4.45355C17.5537 4.95421 17.5904 5.55388 17.6035 6.10058C17.6098 6.3636 17.5464 6.8712 17.287 7.03472C17.0159 7.20564 16.6633 7.2608 16.3559 7.31435C15.9902 7.37808 15.6318 7.42442 15.2613 7.42784C15.2734 7.46586 15.2849 7.50384 15.2958 7.54174C15.4518 8.08436 15.2102 8.56539 14.9824 9.04435C14.8128 9.40086 14.6635 9.63355 14.3187 9.82792C13.9807 10.0184 13.5796 10.1762 13.2094 10.2919C13.1137 10.3218 13.013 10.3399 12.9096 10.3485C12.9105 10.4816 12.9064 10.6148 12.9021 10.7467C12.8821 11.3531 12.7843 11.9461 12.4473 12.4644C12.1559 12.9125 11.8572 12.9432 11.3979 12.8347C11.2067 12.7895 10.8812 12.7469 10.7234 12.6242C10.6561 12.5718 10.6323 12.4936 10.579 12.4306C10.4734 12.3058 10.3444 12.1907 10.2195 12.0864C9.67207 11.6297 9.00854 11.4448 8.38502 11.1216C8.08189 10.9644 7.77935 10.8088 7.47393 10.656C7.3546 10.5964 7.19737 10.5468 7.09751 10.4548C7.01524 10.379 7.15923 10.2147 7.19584 10.1536C7.39671 9.81887 7.60931 9.60027 7.93025 9.35778C8.2777 9.09526 8.65052 8.8552 9.07641 8.74321C9.16517 8.71988 9.38985 8.65889 9.48971 8.70327C9.51761 8.71567 9.551 8.81918 9.56806 8.84462C9.73308 9.09059 9.87472 9.36394 10.0689 9.58824C10.2371 9.78251 10.4845 9.83757 10.7234 9.89552C11.0397 9.97223 11.3525 10.0569 11.6637 10.1521C12.0314 10.2646 12.4931 10.3831 12.9096 10.3485C12.9077 10.055 12.8813 9.76213 12.7792 9.4853C12.7518 9.411 12.7188 9.33833 12.6814 9.26725C12.2734 9.42575 11.8482 9.48519 11.4025 9.47147C11.2061 9.46543 10.943 9.46817 10.7603 9.37929C10.6387 9.32012 10.6784 8.95657 10.7081 8.85076C10.7887 8.5635 10.9182 8.30196 11.0891 8.0549C11.1284 7.99816 11.2567 7.77709 11.358 7.82598C11.6079 7.94663 11.8261 8.1969 12.011 8.39598C12.2529 8.65657 12.5123 8.94561 12.6814 9.26725C12.7696 9.233 12.857 9.19413 12.9436 9.15036C13.4453 8.89678 13.9731 8.5024 14.1527 7.94428C14.2099 7.76664 14.242 7.58823 14.2513 7.4113C14.1261 7.39377 14.0041 7.36502 13.8885 7.31896C13.611 7.20846 13.2471 7.03971 13.0204 6.83192C12.9128 6.73327 13.6 6.5085 13.6672 6.48161C13.7829 6.43534 13.9012 6.37485 14.0222 6.31857C13.9445 6.15739 13.849 6.00254 13.7379 5.85629C13.4287 5.44934 12.9988 5.05678 12.5095 4.83109C12.267 4.89645 12.0232 4.95926 11.7759 5.0128C11.5139 5.06953 10.7089 5.10499 10.977 5.10499C11.0552 5.10499 11.1158 5.12282 11.1874 5.15415C11.3158 5.21031 11.4286 5.29692 11.5593 5.34774C11.8089 5.44482 12.1026 5.4092 12.3643 5.4092C12.4535 5.4092 13.1018 5.32572 13.1018 5.48602C13.1018 5.57043 13.0227 5.68966 12.985 5.76257C12.9594 5.8122 12.8828 5.84491 12.8406 5.86551C12.5748 5.99533 12.2896 6.08972 12.0079 6.1774C11.2019 6.42825 10.3717 6.65743 9.5296 6.74906C9.52189 6.76455 9.51703 6.77445 9.51582 6.77661C9.51336 6.781 9.51089 6.78539 9.50842 6.78978C9.29498 7.16829 9.04452 7.51216 8.74301 7.82598C8.72554 7.84415 8.38114 8.24289 8.35122 8.0887C8.33094 7.98415 8.34449 7.69611 8.34815 7.63085C8.35069 7.58547 8.35353 7.54011 8.35667 7.49476C8.30101 7.5226 8.24489 7.54906 8.18836 7.574C7.64779 7.81257 7.0638 7.82155 6.48294 7.80907C5.76548 7.79366 4.63985 7.68617 4.53785 6.77661C4.51547 6.57705 4.52603 6.37995 4.55298 6.18402C4.41951 6.2269 4.28688 6.2718 4.15682 6.32183C4.09662 6.34498 3.99133 6.40991 3.92328 6.40018C3.851 6.38986 4.01042 5.81347 4.02161 5.76872C4.13623 5.31026 4.33519 4.76921 4.68688 4.43511C4.80084 4.32685 4.80057 4.48418 4.80365 4.5949C4.81859 5.13281 4.62586 5.65412 4.55298 6.18402C4.7291 6.12743 4.90668 6.07435 5.08174 6.01762C5.43482 5.90319 5.8007 5.84295 6.16337 5.76872C6.27674 5.74552 6.68575 5.71139 6.68575 5.54748V3.88661C6.68575 3.46567 6.72525 3.04733 6.80927 2.63579C6.8291 2.53866 6.85141 2.44191 6.87627 2.34559C6.89184 2.28523 6.97053 2.35659 7.00379 2.38246C7.06325 2.42871 7.15622 2.49949 7.23271 2.50538C7.31338 2.51158 7.36049 2.6124 7.43859 2.63751C7.50647 2.65932 7.56306 2.66005 7.61725 2.66211C7.60312 2.63764 7.58783 2.61891 7.57073 2.60985C7.51783 2.58185 7.46109 2.51427 7.40479 2.50538C7.37428 2.50056 7.34544 2.47575 7.41094 2.5023C7.53206 2.55141 7.64607 2.61524 7.75685 2.68446C7.78711 2.69559 7.81885 2.7126 7.85343 2.73891C7.87647 2.75645 7.8994 2.77412 7.92222 2.79191C7.94646 2.80804 7.97062 2.82421 7.99478 2.84032C8.42404 3.12649 8.85603 3.43089 9.24081 3.77292C9.335 3.85665 9.47748 3.92106 9.55884 4.0126C9.57571 4.03157 9.5906 4.06223 9.58957 4.08788C9.58487 4.20538 9.34545 3.98742 9.34221 3.98494C8.84903 3.60813 8.40977 3.17198 7.92222 2.79191C7.86758 2.75552 7.81263 2.71931 7.75685 2.68446C7.70836 2.66662 7.66369 2.66388 7.61725 2.66211C7.66695 2.74823 7.70227 2.90552 7.75202 2.96323C7.77143 2.98574 7.79381 3.01314 7.81857 3.04193C7.86049 3.06565 7.90141 3.0897 7.941 3.1138C7.9782 3.13644 8.2077 3.24593 8.11769 3.24593C8.00673 3.24593 7.89986 3.13647 7.81857 3.04193C7.63125 2.93596 7.42404 2.8367 7.22657 2.76964Z" fill="#FF6633"/>
<path d="M9.28536 15.0609C9.24928 14.9166 9.1246 14.7881 9.04876 14.6676C9.00241 14.594 8.94833 14.5326 8.89819 14.4587C8.82505 14.3509 8.69679 14.3203 8.62163 14.2159C8.24436 13.6919 7.94172 13.1128 7.52156 12.6273C7.39822 12.4847 7.22984 12.3686 7.08522 12.2462C7.01047 12.183 6.91179 12.1127 6.81788 12.0803C6.54419 11.9859 6.3014 11.8509 6.10652 11.6317C6.01175 11.5251 5.92959 11.404 5.82843 11.3029C5.73394 11.2084 5.62725 11.1418 5.53805 11.0371C5.25182 10.7011 5.04367 10.29 4.73758 9.97234C4.59346 9.82278 4.48792 9.66859 4.40571 9.48069C4.33695 9.32353 4.1849 9.23005 4.1138 9.07815C4.02197 8.88197 3.77648 8.58845 3.57452 8.49278C3.52782 8.47066 3.41925 8.42655 3.39476 8.38369C3.31799 8.24935 3.35617 8.7021 3.40858 8.84769C3.49029 9.07465 3.1947 8.60747 3.16276 8.55424C3.04259 8.35396 2.94081 8.12855 2.78941 7.95043C2.62708 7.75945 2.39931 7.52464 2.31005 7.28362C2.2848 7.21546 2.27088 7.12219 2.23323 7.06238C2.20881 7.0236 2.17902 6.99266 2.1518 6.95637C2.10956 6.90005 2.1295 6.82946 2.10724 6.76585C2.01053 6.48953 2.00372 6.14321 1.98279 5.85015C1.97136 5.69006 1.90136 5.55725 1.90136 5.39383C1.90136 5.22585 1.90136 5.05787 1.90136 4.88989C1.90136 4.66561 2.06891 4.42917 2.18406 4.24152C2.30922 4.03756 2.47409 3.86039 2.60504 3.65461C2.71852 3.47629 2.77335 3.3402 2.95073 3.1983C3.04255 3.12485 3.07975 3.12818 3.18888 3.11072C3.37258 3.08133 3.62048 2.935 3.77271 2.8311C4.18896 2.54699 4.64425 2.46174 5.13551 2.42395C5.50152 2.39579 5.94016 2.37995 6.30472 2.42856C6.47141 2.45078 6.58876 2.54893 6.74106 2.60985C6.90267 2.6745 7.06301 2.71409 7.22657 2.76964C7.46823 2.85171 7.72448 2.982 7.941 3.1138C7.9782 3.13644 8.2077 3.24593 8.11769 3.24593C7.97294 3.24593 7.83514 3.05964 7.75202 2.96323C7.68813 2.88912 7.64803 2.65078 7.57073 2.60985C7.51783 2.58185 7.46109 2.51427 7.40479 2.50538C7.37428 2.50056 7.34544 2.47575 7.41094 2.5023C7.62008 2.58709 7.808 2.7158 7.99478 2.84032C8.42404 3.12649 8.85603 3.43089 9.24081 3.77292C9.335 3.85665 9.47748 3.92106 9.55884 4.0126C9.57571 4.03157 9.5906 4.06223 9.58957 4.08788C9.58487 4.20538 9.34545 3.98742 9.34221 3.98494C8.82594 3.59049 8.36876 3.13101 7.85343 2.73891C7.69875 2.62123 7.60093 2.68969 7.43859 2.63751C7.36049 2.6124 7.31338 2.51158 7.23271 2.50538C7.15622 2.49949 7.06325 2.42871 7.00379 2.38246C6.97053 2.35659 6.89184 2.28523 6.87627 2.34559C6.7461 2.85 6.68575 3.36632 6.68575 3.88661C6.68575 4.44023 6.68575 4.99385 6.68575 5.54748C6.68575 5.71139 6.27674 5.74552 6.16337 5.76872C5.8007 5.84295 5.43482 5.90319 5.08174 6.01762C4.77403 6.11734 4.45853 6.20578 4.15682 6.32183C4.09662 6.34498 3.99133 6.40991 3.92328 6.40018C3.851 6.38986 4.01042 5.81347 4.02161 5.76872C4.13623 5.31025 4.33519 4.76921 4.68688 4.43511C4.80084 4.32685 4.80057 4.48418 4.80365 4.5949C4.82411 5.33171 4.45494 6.03737 4.53785 6.77661C4.63985 7.68617 5.76548 7.79366 6.48294 7.80907C7.0638 7.82155 7.64779 7.81257 8.18836 7.574C8.68241 7.35597 9.14525 7.02265 9.54041 6.65677C9.6028 6.599 9.70512 6.49397 9.7678 6.4263C9.79223 6.39992 9.85841 6.36175 9.83079 6.33873C9.7549 6.27549 9.5252 6.75988 9.51582 6.77661C9.30078 7.16031 9.04801 7.50852 8.74301 7.82598C8.72554 7.84415 8.38114 8.24289 8.35122 8.0887C8.33094 7.98415 8.34449 7.69611 8.34815 7.63085C8.37056 7.23094 8.41608 6.83232 8.48028 6.43706C8.52269 6.17596 8.59398 5.91504 8.59398 5.64888C8.59398 5.40705 8.0473 5.89337 8.01168 5.92543C7.83803 6.08172 7.47397 6.32465 7.43398 6.58455C7.38296 6.91624 9.15262 6.78162 9.28075 6.772C10.2082 6.7023 11.1226 6.45292 12.0079 6.1774C12.2896 6.08972 12.5748 5.99533 12.8406 5.86551C12.8828 5.84491 12.9594 5.8122 12.985 5.76257C13.0227 5.68966 13.1018 5.57043 13.1018 5.48602C13.1018 5.32572 12.4535 5.4092 12.3643 5.4092C12.1026 5.4092 11.8089 5.44482 11.5593 5.34774C11.4286 5.29692 11.3158 5.21031 11.1874 5.15415C11.1158 5.12282 11.0552 5.10499 10.977 5.10499C10.7089 5.10499 11.5139 5.06953 11.7759 5.0128C12.6667 4.81995 13.5118 4.50679 14.4185 4.38748C14.8434 4.33158 15.2569 4.24767 15.6861 4.24767C15.9553 4.24767 16.2319 4.23022 16.5004 4.25228C16.7066 4.26923 16.9076 4.32402 17.1149 4.33064C17.2355 4.33448 17.2554 4.33741 17.3116 4.45355C17.5537 4.95421 17.5904 5.55388 17.6035 6.10058C17.6098 6.3636 17.5464 6.8712 17.287 7.03472C17.0159 7.20564 16.6633 7.2608 16.3559 7.31435C15.9757 7.38059 15.6036 7.42804 15.2175 7.42804C14.7861 7.42804 14.2978 7.48197 13.8885 7.31896C13.611 7.20846 13.2471 7.03971 13.0204 6.83192C12.9128 6.73327 13.6 6.5085 13.6672 6.48161C13.9603 6.36437 14.2704 6.15589 14.5967 6.15589C14.7378 6.15589 14.81 6.33936 14.8595 6.44474C15.023 6.79342 15.1893 7.17133 15.2958 7.54174C15.4518 8.08436 15.2102 8.56539 14.9824 9.04435C14.8128 9.40086 14.6635 9.63355 14.3187 9.82792C13.9807 10.0184 13.5796 10.1762 13.2094 10.2919C12.7282 10.4423 12.1227 10.2925 11.6637 10.1521C11.3525 10.0569 11.0397 9.97223 10.7234 9.89552C10.4845 9.83757 10.2371 9.78251 10.0689 9.58824C9.87472 9.36394 9.73308 9.09059 9.56806 8.84462C9.551 8.81918 9.51761 8.71567 9.48971 8.70327C9.38985 8.65889 9.16517 8.71988 9.07641 8.74321C8.65052 8.8552 8.2777 9.09526 7.93025 9.35778C7.60931 9.60027 7.39671 9.81887 7.19584 10.1536C7.15923 10.2147 7.01524 10.379 7.09751 10.4548C7.19737 10.5468 7.3546 10.5964 7.47393 10.656C7.77935 10.8088 8.08189 10.9644 8.38502 11.1216C9.00854 11.4448 9.67207 11.6297 10.2195 12.0864C10.3444 12.1907 10.4734 12.3058 10.579 12.4306C10.6323 12.4936 10.6561 12.5718 10.7234 12.6242C10.8812 12.7469 11.2067 12.7895 11.3979 12.8347C11.8572 12.9432 12.1559 12.9125 12.4473 12.4644C12.7843 11.9461 12.8821 11.3531 12.9021 10.7467C12.916 10.3239 12.9276 9.88767 12.7792 9.4853C12.6277 9.07473 12.3064 8.71416 12.011 8.39598C11.8261 8.1969 11.6079 7.94663 11.358 7.82598C11.2567 7.77709 11.1284 7.99816 11.0891 8.0549C10.9182 8.30196 10.7887 8.5635 10.7081 8.85076C10.6784 8.95657 10.6387 9.32012 10.7603 9.37929C10.943 9.46817 11.2061 9.46543 11.4025 9.47147C11.9445 9.48815 12.4562 9.39665 12.9436 9.15036C13.4453 8.89678 13.9731 8.5024 14.1527 7.94428C14.3896 7.20837 14.1959 6.45919 13.7379 5.85629C13.2034 5.15276 12.3082 4.49228 11.3687 4.6625C10.6462 4.79342 10.1286 5.44967 9.80006 6.05603C9.68233 6.27329 9.50661 6.5767 9.50661 6.83653C9.50661 7.04487 9.56054 7.08354 9.72785 7.17915" stroke="#FF6633" stroke-width="3" stroke-linecap="round"/>
</svg>
