<svg width="24" height="24" viewBox="0 0 24 24" fill="none" xmlns="http://www.w3.org/2000/svg">
<path fill-rule="evenodd" clip-rule="evenodd" d="M11.3325 1.89779C11.3323 1.89788 11.3327 1.8977 11.3325 1.89779L3.33359 5.89724L3.33249 5.89779C2.82282 6.15105 2.50039 6.67092 2.49999 7.24003V16.7635C2.49602 17.3334 2.81535 17.8563 3.3241 18.1131C3.32439 18.1132 3.32381 18.1129 3.3241 18.1131L11.3236 22.1128C11.7461 22.3242 12.2437 22.3243 12.6662 22.1129L20.6664 18.1128L20.6675 18.1123C21.1772 17.859 21.4997 17.339 21.5 16.7698V7.24029C21.4997 6.67109 21.1772 6.15109 20.6675 5.89779L20.6664 5.89724L12.6675 1.89779C12.6673 1.8977 12.6677 1.89789 12.6675 1.89779C12.2473 1.68923 11.7527 1.68922 11.3325 1.89779ZM10.8875 1.00226C11.5883 0.654031 12.4117 0.654031 13.1125 1.00226L13.1136 1.00281L21.1125 5.00226C21.1126 5.00234 21.1123 5.00218 21.1125 5.00226C21.9618 5.42451 22.4995 6.29126 22.5 7.23976V16.77C22.4995 17.7185 21.9623 18.5852 21.1131 19.0075C21.1129 19.0076 21.1134 19.0074 21.1131 19.0075L13.1137 23.0072C13.1137 23.0072 13.1138 23.0071 13.1137 23.0072C12.4096 23.3595 11.5805 23.3595 10.8764 23.0072C10.8763 23.0072 10.8764 23.0073 10.8764 23.0072L2.87638 19.0072L2.875 19.0065C2.02679 18.5792 1.49407 17.7081 1.49999 16.7584V7.24003C1.50049 6.29157 2.03766 5.42483 2.88689 5.00256C2.88709 5.00246 2.88669 5.00266 2.88689 5.00256L10.8864 1.00281L10.8875 1.00226Z" fill="#414141"/>
<path fill-rule="evenodd" clip-rule="evenodd" d="M1.87278 5.93641C1.99628 5.68943 2.29661 5.58931 2.5436 5.71281L12 10.441L21.4564 5.71281C21.7034 5.58931 22.0037 5.68943 22.1272 5.93641C22.2507 6.1834 22.1506 6.48374 21.9036 6.60724L12.2236 11.4472C12.0828 11.5176 11.9172 11.5176 11.7764 11.4472L2.09639 6.60724C1.8494 6.48374 1.74929 6.1834 1.87278 5.93641Z" fill="#414141"/>
<path fill-rule="evenodd" clip-rule="evenodd" d="M12 10.5C12.2761 10.5 12.5 10.7239 12.5 11V22.76C12.5 23.0361 12.2761 23.26 12 23.26C11.7239 23.26 11.5 23.0361 11.5 22.76V11C11.5 10.7239 11.7239 10.5 12 10.5Z" fill="#414141"/>
<path fill-rule="evenodd" clip-rule="evenodd" d="M6.55277 3.27638C6.67627 3.02939 6.9766 2.92928 7.22359 3.05277L17.2236 8.05277C17.4706 8.17627 17.5707 8.4766 17.4472 8.72359C17.3237 8.97058 17.0234 9.0707 16.7764 8.9472L6.77638 3.9472C6.52939 3.82371 6.42928 3.52337 6.55277 3.27638Z" fill="#414141"/>
</svg>
